# xmcd
#
# Track frame offsets:
# 150
# 18967
# 35754
# 46933
# 63510
# 79496
# 99073
# 113512
# 136381
# 151446
# 168243
# 185452
# 201211
# 216806
# 232868
# 249471
# 265492
#
# Disc length: 3722 seconds
#
#
# Revision: 2
# Processed by: cddbd v1.5.2PL0 Copyright (c) Steve Scherf et al.
# Submitted via: FreeRIP 2.90 
#
DISCID=e10e8811
DTITLE=Daniel - Dificil Não Falar de Amor
DYEAR=2008
DGENRE=Romântica
TTITLE0=Difícil Não falar de amor
TTITLE1=Amiga
TTITLE2=Metade com Metade
TTITLE3=Pode ser
TTITLE4=Foi Assim
TTITLE5=Matermática
TTITLE6=Sempre vou te amar
TTITLE7=Que nem um caçador
TTITLE8=Judieira
TTITLE9=Moça
TTITLE10=Tô Dentro
TTITLE11=Que me namorar
TTITLE12=Quase Louco
TTITLE13=Coração de Menino
TTITLE14=Bebi de Novo
TTITLE15=Lembranças ao Vento
TTITLE16=Fórmula Secreta
EXTD=TOMA AI SEU CORNO
EXTT0=
EXTT1=
EXTT2=
EXTT3=
EXTT4=
EXTT5=
EXTT6=
EXTT7=
EXTT8=
EXTT9=
EXTT10=
EXTT11=
EXTT12=
EXTT13=
EXTT14=
EXTT15=
EXTT16=
PLAYORDER=
